# xmcd
#
# Track frame offsets: 
#        150
#        9974
#        30099
#        48372
#        68359
#        83870
#        97814
#        122848
#        147543
#
# Disc length: 2386 seconds
#
# Revision: 0
# Processed by: cddbd v1.5.2PL0 Copyright (c) Steve Scherf et al.
# Submitted via: ExactAudioCopy v0.95b3
#
DISCID=61095009
DTITLE=Fleetwood Mac  - Shrine '69 Ryko Records 1997  
DYEAR=1900
DGENRE=
TTITLE0=Tune Up
TTITLE1=If You Be My Baby
TTITLE2=Something Inside Of Me
TTITLE3=My Sweet Baby
TTITLE4=Albatross
TTITLE5=Before The Beginning
TTITLE6=Rollin' Man
TTITLE7=Lemon Squeezer
TTITLE8=Need Your Love So Bad
EXTD=
EXTT0=
EXTT1=
EXTT2=
EXTT3=
EXTT4=
EXTT5=
EXTT6=
EXTT7=
EXTT8=
PLAYORDER=
